<?xml version="1.0" encoding="UTF-8"?>
<svg id="a" data-name="Layer 1" xmlns="http://www.w3.org/2000/svg" viewBox="0 0 4030.82 536.7">
  <defs>
    <style>
      .b {
        fill: #fff;
        stroke-width: 0px;
      }
    </style>
  </defs>
  <g>
    <path class="b" d="m89.94,456.21c-2.13-9.33-6.08-15.96-11.85-19.91-5.79-3.95-13.33-5.91-22.64-5.91-6.58,0-12.26,1.32-17,3.95-4.77,2.63-8.7,6.17-11.77,10.62-3.1,4.47-5.38,9.6-6.84,15.43s-2.21,11.98-2.21,18.45c0,6.08.63,12.05,1.91,17.93,1.26,5.88,3.36,11.11,6.3,15.72,2.93,4.6,6.88,8.33,11.85,11.16,4.95,2.84,11.18,4.25,18.67,4.25,4.65,0,8.92-.76,12.76-2.28,3.86-1.52,7.21-3.62,10.11-6.3,2.89-2.67,5.32-5.84,7.29-9.49,1.98-3.63,3.47-7.64,4.49-12h10.79c-1.22,5.27-3,10.25-5.32,14.96-2.34,4.71-5.4,8.84-9.2,12.39-3.8,3.54-8.4,6.36-13.81,8.42-5.41,2.08-11.77,3.12-19.06,3.12-8.42,0-15.59-1.54-21.58-4.62-5.97-3.1-10.85-7.27-14.65-12.53-3.8-5.27-6.56-11.37-8.29-18.3-1.71-6.93-2.58-14.31-2.58-22.1,0-10.44,1.3-19.3,3.88-26.59,2.58-7.29,6.16-13.24,10.72-17.86,4.54-4.6,9.92-7.94,16.09-10.01,6.17-2.08,12.91-3.12,20.21-3.12,5.56,0,10.75.74,15.56,2.21,4.82,1.46,9.07,3.67,12.76,6.6,3.71,2.93,6.73,6.56,9.12,10.87,2.37,4.3,4.02,9.29,4.93,14.96h-10.62Z"/>
    <path class="b" d="m128.21,533.83v-109.36h9.1v41.61c3.65-3.84,7.42-6.99,11.33-9.42,3.89-2.43,8.57-3.63,14.04-3.63,4.88,0,9.36.83,13.52,2.5,4.15,1.67,7.66,4.58,10.49,8.73,1.91,2.84,3.06,5.75,3.41,8.73.35,2.99.54,6.1.54,9.35v51.49h-9.12v-51.34c0-7.08-1.58-12.4-4.71-15.95-3.13-3.54-8.34-5.32-15.65-5.32-2.82,0-5.41.43-7.73,1.3-2.34.85-4.43,2-6.3,3.41s-3.47,3.04-4.78,4.86c-1.32,1.82-2.34,3.75-3.04,5.77-.91,2.54-1.46,4.97-1.67,7.31-.2,2.32-.32,4.86-.32,7.58v42.39h-9.1Z"/>
    <path class="b" d="m256.39,487.96c1.72-.2,3.78-.5,6.16-.91,2.39-.41,4.34-.96,5.86-1.67,1.52-.72,2.45-1.91,2.8-3.58s.54-3.21.54-4.64c0-4.65-1.5-8.47-4.49-11.46s-8.03-4.49-15.11-4.49c-3.13,0-6.03.28-8.66.83-2.63.56-4.93,1.52-6.92,2.89-1.97,1.35-3.58,3.19-4.86,5.47-1.26,2.26-2.1,5.14-2.5,8.57h-9.27c.32-4.65,1.37-8.62,3.19-11.92,1.84-3.28,4.19-5.97,7.06-8.05,2.89-2.08,6.23-3.6,10.03-4.56,3.8-.95,7.82-1.43,12.07-1.43,3.95,0,7.68.43,11.16,1.28,3.5.87,6.55,2.23,9.12,4.1,2.58,1.89,4.6,4.39,6.08,7.53,1.46,3.13,2.19,6.99,2.19,11.55v42.83c0,3.54.63,5.79,1.91,6.75,1.26.96,3.82.74,7.66-.69v7.14c-.7.2-1.74.52-3.1.93-1.37.39-2.73.59-4.04.59-1.41,0-2.78-.15-4.1-.45-1.52-.2-2.73-.69-3.63-1.45-.91-.76-1.65-1.67-2.21-2.74-.56-1.06-.95-2.23-1.15-3.49s-.3-2.61-.3-4.02c-3.86,4.25-8.25,7.49-13.22,9.72-4.95,2.23-10.33,3.34-16.09,3.34-3.45,0-6.77-.45-9.96-1.35-3.19-.91-5.99-2.34-8.42-4.26-2.43-1.91-4.36-4.26-5.77-7.06-1.43-2.78-2.13-6.1-2.13-9.94,0-13.37,9.16-21.27,27.5-23.7l12.59-1.67Zm15.35,4.56c-3.86,1.61-7.75,2.67-11.7,3.19-3.95.5-7.9.91-11.85,1.21-6.99.5-12.42,2.08-16.34,4.71-3.89,2.63-5.84,6.64-5.84,12,0,2.43.48,4.54,1.45,6.3.96,1.78,2.23,3.24,3.8,4.41,1.56,1.17,3.39,2.02,5.47,2.58,2.08.56,4.17.83,6.3.83,3.63,0,7.18-.46,10.62-1.37s6.51-2.3,9.2-4.17c2.67-1.87,4.82-4.25,6.45-7.14,1.61-2.89,2.43-6.3,2.43-10.25v-12.29Z"/>
    <path class="b" d="m321.88,533.83h-9.12v-78.69h9.12v14.74h.3c2.54-6.29,5.8-10.66,9.81-13.15,3.99-2.47,9.29-3.71,15.87-3.71v9.86c-5.17-.09-9.42.7-12.76,2.43-3.36,1.72-6.01,4.06-7.97,6.99-1.98,2.93-3.36,6.4-4.12,10.4s-1.13,8.18-1.13,12.53v38.59Z"/>
    <path class="b" d="m398.12,534.13c-1.11.2-2.6.56-4.41,1.06-1.82.52-3.84.76-6.06.76-4.56,0-8.03-1.13-10.42-3.41-2.37-2.28-3.56-6.36-3.56-12.22v-57.57h-11.09v-7.6h11.09v-21.86h9.1v21.86h14.74v7.6h-14.74v53.92c0,1.93.06,3.6.17,5.01.09,1.43.39,2.6.91,3.5.5.91,1.28,1.58,2.35,1.97,1.06.41,2.56.61,4.47.61,1.22,0,2.47-.09,3.73-.3s2.5-.46,3.73-.76v7.44Z"/>
    <path class="b" d="m425.92,496.62c0,4.25.56,8.27,1.67,12.07,1.11,3.8,2.76,7.08,4.93,9.86,2.19,2.8,4.95,5.02,8.29,6.69,3.34,1.67,7.18,2.5,11.53,2.5,5.97,0,11.09-1.58,15.35-4.71,4.25-3.13,7.08-7.58,8.49-13.37h10.18c-1.11,3.75-2.58,7.21-4.39,10.4-1.84,3.19-4.1,5.99-6.84,8.36-2.73,2.37-5.97,4.23-9.72,5.54-3.75,1.32-8.1,1.97-13.07,1.97-6.27,0-11.68-1.06-16.24-3.19-4.56-2.11-8.31-5.02-11.24-8.73-2.95-3.69-5.12-8.05-6.55-13.05-1.41-5.01-2.11-10.4-2.11-16.19s.83-11.18,2.5-16.24c1.67-5.06,4.04-9.49,7.14-13.29,3.08-3.8,6.86-6.79,11.31-8.96,4.45-2.19,9.51-3.26,15.19-3.26,10.85,0,19.34,3.71,25.53,11.16,6.17,7.44,9.2,18.25,9.1,32.43h-61.06Zm51.34-7.6c0-3.84-.54-7.47-1.59-10.87-1.08-3.39-2.63-6.32-4.71-8.81s-4.69-4.45-7.82-5.91c-3.13-1.46-6.73-2.21-10.79-2.21s-7.62.76-10.7,2.28c-3.1,1.52-5.73,3.54-7.9,6.08-2.19,2.52-3.93,5.45-5.25,8.81-1.32,3.34-2.17,6.88-2.58,10.62h51.34Z"/>
    <path class="b" d="m521.93,533.83h-9.12v-78.69h9.12v14.74h.3c2.54-6.29,5.8-10.66,9.81-13.15,3.99-2.47,9.29-3.71,15.87-3.71v9.86c-5.17-.09-9.42.7-12.76,2.43-3.36,1.72-6.01,4.06-7.97,6.99-1.98,2.93-3.36,6.4-4.12,10.4-.76,4.01-1.13,8.18-1.13,12.53v38.59Z"/>
    <path class="b" d="m576.14,496.62c0,4.25.56,8.27,1.67,12.07,1.11,3.8,2.76,7.08,4.93,9.86,2.19,2.8,4.95,5.02,8.29,6.69,3.34,1.67,7.18,2.5,11.53,2.5,5.97,0,11.09-1.58,15.35-4.71,4.25-3.13,7.08-7.58,8.49-13.37h10.18c-1.11,3.75-2.58,7.21-4.39,10.4-1.84,3.19-4.1,5.99-6.84,8.36-2.73,2.37-5.97,4.23-9.72,5.54-3.75,1.32-8.1,1.97-13.07,1.97-6.27,0-11.68-1.06-16.24-3.19-4.56-2.11-8.31-5.02-11.24-8.73-2.95-3.69-5.12-8.05-6.55-13.05-1.41-5.01-2.11-10.4-2.11-16.19s.83-11.18,2.5-16.24,4.04-9.49,7.14-13.29c3.08-3.8,6.86-6.79,11.31-8.96,4.45-2.19,9.51-3.26,15.19-3.26,10.85,0,19.34,3.71,25.53,11.16,6.17,7.44,9.2,18.25,9.1,32.43h-61.06Zm51.34-7.6c0-3.84-.54-7.47-1.59-10.87-1.08-3.39-2.63-6.32-4.71-8.81s-4.69-4.45-7.82-5.91c-3.13-1.46-6.73-2.21-10.79-2.21s-7.62.76-10.7,2.28c-3.1,1.52-5.73,3.54-7.9,6.08-2.19,2.52-3.93,5.45-5.25,8.81-1.32,3.34-2.17,6.88-2.58,10.62h51.34Z"/>
    <path class="b" d="m723.35,424.47h9.1v109.36h-9.1v-13.83h-.32c-1.32,2.63-3,4.95-5.08,6.92-2.08,1.98-4.36,3.62-6.84,4.93-2.48,1.32-5.04,2.34-7.68,3.04s-5.21,1.06-7.73,1.06c-6.38,0-11.81-1.06-16.26-3.19-4.45-2.11-8.12-5.02-11.01-8.73-2.87-3.69-4.99-8.07-6.3-13.13-1.32-5.06-1.97-10.48-1.97-16.26,0-5.47.7-10.74,2.11-15.8,1.43-5.06,3.58-9.49,6.47-13.29,2.87-3.78,6.53-6.82,10.92-9.1,4.41-2.28,9.6-3.41,15.58-3.41,5.56,0,10.9,1.24,16.02,3.71,5.12,2.48,9.14,6.16,12.09,11.01v-43.28Zm0,69.72c0-4.47-.61-8.7-1.84-12.68-1.21-4.01-2.95-7.49-5.23-10.49-2.28-2.99-5.06-5.36-8.36-7.14-3.28-1.76-7.01-2.65-11.16-2.65-4.77,0-8.86.95-12.31,2.82-3.43,1.87-6.27,4.43-8.49,7.66-2.23,3.24-3.86,7.01-4.86,11.33-1.02,4.3-1.43,8.94-1.22,13.89,0,4.97.69,9.35,2.06,13.15,1.35,3.8,3.26,7.01,5.69,9.64s5.27,4.64,8.51,5.99c3.23,1.37,6.77,2.06,10.62,2.06,4.25,0,8.05-.85,11.38-2.58,3.36-1.72,6.14-4.08,8.36-7.06,2.23-2.99,3.93-6.53,5.08-10.64,1.17-4.1,1.76-8.53,1.76-13.28Z"/>
    <path class="b" d="m804.13,533.83l42.98-109.36h11.7l41.92,109.36h-10.62l-12.61-34.34h-49.82l-12.92,34.34h-10.62Zm27.03-43.15h42.83l-21.42-57.41-21.42,57.41Z"/>
    <path class="b" d="m977.44,479.91c-1.61-5.88-4.39-10.46-8.34-13.76-3.95-3.28-8.97-4.93-15.04-4.93-4.67,0-8.66.96-12,2.89-3.36,1.91-6.08,4.47-8.21,7.66-2.13,3.19-3.69,6.79-4.71,10.79-1,4.01-1.52,8.03-1.52,12.07s.48,8.21,1.45,12.16c.96,3.95,2.5,7.49,4.64,10.62,2.13,3.13,4.86,5.66,8.2,7.53,3.36,1.87,7.4,2.8,12.16,2.8,6.79,0,12.22-1.87,16.32-5.62,4.12-3.75,6.71-8.92,7.82-15.5h9.72c-.8,4.36-2.1,8.34-3.86,11.92-1.78,3.6-4.06,6.69-6.84,9.27s-6.1,4.58-9.96,6.01c-3.84,1.41-8.25,2.11-13.2,2.11-6.29,0-11.7-1.06-16.26-3.19-4.56-2.11-8.31-5.02-11.24-8.73-2.95-3.69-5.12-8.07-6.53-13.13-1.43-5.06-2.13-10.48-2.13-16.26,0-5.47.78-10.7,2.35-15.72,1.58-5.01,3.88-9.44,6.92-13.28,3.04-3.86,6.8-6.92,11.31-9.2,4.51-2.28,9.7-3.41,15.58-3.41,9.1,0,16.48,2.17,22.1,6.53,5.62,4.36,9.12,11.14,10.55,20.36h-9.27Z"/>
    <path class="b" d="m1069.49,479.91c-1.61-5.88-4.39-10.46-8.34-13.76-3.95-3.28-8.97-4.93-15.04-4.93-4.67,0-8.66.96-12,2.89-3.36,1.91-6.08,4.47-8.21,7.66s-3.69,6.79-4.71,10.79c-1,4.01-1.52,8.03-1.52,12.07s.48,8.21,1.45,12.16c.96,3.95,2.5,7.49,4.64,10.62,2.13,3.13,4.86,5.66,8.2,7.53,3.36,1.87,7.4,2.8,12.16,2.8,6.79,0,12.22-1.87,16.32-5.62,4.12-3.75,6.71-8.92,7.82-15.5h9.72c-.8,4.36-2.1,8.34-3.86,11.92-1.78,3.6-4.06,6.69-6.84,9.27s-6.1,4.58-9.96,6.01c-3.84,1.41-8.25,2.11-13.2,2.11-6.29,0-11.7-1.06-16.26-3.19-4.56-2.11-8.31-5.02-11.24-8.73-2.95-3.69-5.12-8.07-6.53-13.13-1.43-5.06-2.13-10.48-2.13-16.26,0-5.47.78-10.7,2.35-15.72,1.58-5.01,3.88-9.44,6.92-13.28,3.04-3.86,6.8-6.92,11.31-9.2,4.51-2.28,9.7-3.41,15.58-3.41,9.1,0,16.48,2.17,22.1,6.53,5.62,4.36,9.12,11.14,10.55,20.36h-9.27Z"/>
    <path class="b" d="m1137.09,535.94c-5.06-.09-9.79-1-14.2-2.73-4.39-1.72-8.25-4.3-11.53-7.75-3.3-3.43-5.9-7.75-7.82-12.91-1.93-5.17-2.89-11.2-2.89-18.08,0-5.77.76-11.16,2.28-16.17,1.52-5.02,3.8-9.4,6.84-13.15,3.04-3.75,6.82-6.71,11.38-8.88,4.56-2.19,9.88-3.26,15.95-3.26s11.55,1.08,16.11,3.26c4.54,2.17,8.34,5.12,11.38,8.81,3.04,3.69,5.28,8.07,6.77,13.13,1.46,5.08,2.19,10.49,2.19,16.26,0,6.29-.85,11.96-2.58,17.02-1.72,5.06-4.17,9.4-7.36,13.05-3.19,3.65-7.05,6.45-11.55,8.44-4.51,1.97-9.49,2.95-14.96,2.95Zm26.74-41.46c0-4.65-.5-9.01-1.52-13.05-1-4.06-2.58-7.58-4.71-10.57-2.11-2.99-4.86-5.34-8.2-7.06-3.34-1.72-7.45-2.58-12.31-2.58s-8.83.95-12.22,2.82c-3.39,1.87-6.16,4.34-8.29,7.44-2.11,3.1-3.69,6.64-4.71,10.62-1,4.01-1.5,8.14-1.5,12.39,0,4.86.57,9.35,1.74,13.44,1.17,4.1,2.86,7.62,5.08,10.55,2.23,2.95,5.02,5.23,8.36,6.84,3.34,1.61,7.18,2.43,11.53,2.43,4.77,0,8.84-.93,12.24-2.8s6.16-4.39,8.27-7.53c2.13-3.13,3.71-6.68,4.71-10.62,1.02-3.95,1.52-8.07,1.52-12.31Z"/>
    <path class="b" d="m1251.16,455.14h9.12v78.69h-9.12v-10.94c-1.21,1.41-2.58,2.89-4.1,4.39-1.52,1.52-3.26,2.93-5.25,4.19-1.97,1.26-4.26,2.32-6.9,3.19-2.63.85-5.67,1.28-9.12,1.28-5.27,0-9.66-.72-13.22-2.19-3.54-1.46-6.4-3.52-8.57-6.16-2.19-2.63-3.76-5.69-4.71-9.2-.96-3.49-1.45-7.31-1.45-11.46v-51.81h9.1v51.66c0,6.79,1.58,11.96,4.71,15.56s8.31,5.4,15.5,5.4c3.75,0,7.1-.72,10.11-2.21,2.99-1.46,5.49-3.5,7.51-6.14,2.02-2.63,3.6-5.79,4.71-9.42,1.11-3.65,1.67-7.66,1.67-12.02v-42.83Z"/>
    <path class="b" d="m1299.02,533.83h-9.1v-78.69h9.1v10.94c3.65-3.84,7.42-6.99,11.33-9.42,3.89-2.43,8.57-3.63,14.04-3.63,4.88,0,9.36.83,13.52,2.5,4.15,1.67,7.66,4.58,10.49,8.73,1.91,2.84,3.06,5.75,3.41,8.73.35,2.99.54,6.1.54,9.35v51.49h-9.12v-51.34c0-7.08-1.58-12.4-4.71-15.95-3.13-3.54-8.34-5.32-15.65-5.32-2.82,0-5.41.43-7.73,1.3-2.34.85-4.43,2-6.3,3.41-1.87,1.41-3.47,3.04-4.78,4.86-1.32,1.82-2.34,3.75-3.04,5.77-.91,2.54-1.46,4.97-1.67,7.31-.2,2.32-.32,4.86-.32,7.58v42.39Z"/>
    <path class="b" d="m1409.62,534.13c-1.11.2-2.6.56-4.41,1.06-1.82.52-3.84.76-6.06.76-4.56,0-8.03-1.13-10.42-3.41-2.37-2.28-3.56-6.36-3.56-12.22v-57.57h-11.09v-7.6h11.09v-21.86h9.1v21.86h14.74v7.6h-14.74v53.92c0,1.93.06,3.6.17,5.01.09,1.43.39,2.6.91,3.5.5.91,1.28,1.58,2.35,1.97,1.06.41,2.56.61,4.47.61,1.22,0,2.47-.09,3.73-.3,1.26-.2,2.5-.46,3.73-.76v7.44Z"/>
    <path class="b" d="m1467.91,487.96c1.72-.2,3.78-.5,6.16-.91,2.39-.41,4.34-.96,5.86-1.67,1.52-.72,2.45-1.91,2.8-3.58s.54-3.21.54-4.64c0-4.65-1.5-8.47-4.49-11.46-2.99-2.99-8.03-4.49-15.11-4.49-3.13,0-6.03.28-8.66.83-2.63.56-4.93,1.52-6.92,2.89-1.97,1.35-3.58,3.19-4.86,5.47-1.26,2.26-2.1,5.14-2.5,8.57h-9.27c.32-4.65,1.37-8.62,3.19-11.92,1.84-3.28,4.19-5.97,7.06-8.05,2.89-2.08,6.23-3.6,10.03-4.56,3.8-.95,7.82-1.43,12.07-1.43,3.95,0,7.68.43,11.16,1.28,3.5.87,6.55,2.23,9.12,4.1,2.58,1.89,4.6,4.39,6.08,7.53,1.46,3.13,2.19,6.99,2.19,11.55v42.83c0,3.54.63,5.79,1.91,6.75,1.26.96,3.82.74,7.66-.69v7.14c-.7.2-1.74.52-3.1.93-1.37.39-2.73.59-4.04.59-1.41,0-2.78-.15-4.1-.45-1.52-.2-2.73-.69-3.63-1.45-.91-.76-1.65-1.67-2.21-2.74-.56-1.06-.95-2.23-1.15-3.49-.2-1.26-.3-2.61-.3-4.02-3.86,4.25-8.25,7.49-13.22,9.72-4.95,2.23-10.33,3.34-16.09,3.34-3.45,0-6.77-.45-9.96-1.35-3.19-.91-5.99-2.34-8.42-4.26-2.43-1.91-4.36-4.26-5.77-7.06-1.43-2.78-2.13-6.1-2.13-9.94,0-13.37,9.16-21.27,27.5-23.7l12.59-1.67Zm15.35,4.56c-3.86,1.61-7.75,2.67-11.7,3.19-3.95.5-7.9.91-11.85,1.21-6.99.5-12.42,2.08-16.34,4.71-3.89,2.63-5.84,6.64-5.84,12,0,2.43.48,4.54,1.45,6.3.96,1.78,2.23,3.24,3.8,4.41,1.56,1.17,3.39,2.02,5.47,2.58,2.08.56,4.17.83,6.3.83,3.63,0,7.18-.46,10.62-1.37s6.51-2.3,9.2-4.17c2.67-1.87,4.82-4.25,6.45-7.14,1.61-2.89,2.43-6.3,2.43-10.25v-12.29Z"/>
    <path class="b" d="m1532.94,533.83h-9.1v-78.69h9.1v10.94c3.65-3.84,7.42-6.99,11.33-9.42,3.89-2.43,8.57-3.63,14.04-3.63,4.88,0,9.36.83,13.52,2.5,4.15,1.67,7.66,4.58,10.49,8.73,1.91,2.84,3.06,5.75,3.41,8.73.35,2.99.54,6.1.54,9.35v51.49h-9.12v-51.34c0-7.08-1.58-12.4-4.71-15.95-3.13-3.54-8.34-5.32-15.65-5.32-2.82,0-5.41.43-7.73,1.3-2.34.85-4.43,2-6.3,3.41s-3.47,3.04-4.78,4.86c-1.32,1.82-2.34,3.75-3.04,5.77-.91,2.54-1.46,4.97-1.67,7.31-.2,2.32-.32,4.86-.32,7.58v42.39Z"/>
    <path class="b" d="m1643.52,534.13c-1.11.2-2.6.56-4.41,1.06-1.82.52-3.84.76-6.06.76-4.56,0-8.03-1.13-10.42-3.41-2.37-2.28-3.56-6.36-3.56-12.22v-57.57h-11.09v-7.6h11.09v-21.86h9.1v21.86h14.74v7.6h-14.74v53.92c0,1.93.06,3.6.17,5.01.09,1.43.39,2.6.91,3.5.5.91,1.28,1.58,2.35,1.97,1.06.41,2.56.61,4.47.61,1.22,0,2.47-.09,3.73-.3,1.26-.2,2.5-.46,3.73-.76v7.44Z"/>
    <path class="b" d="m1671.02,509.22c1.41,6.79,3.97,11.57,7.66,14.35,3.71,2.78,8.99,4.17,15.87,4.17,3.36,0,6.23-.41,8.66-1.21,2.43-.82,4.43-1.91,6.01-3.28,1.56-1.35,2.76-2.91,3.56-4.62.82-1.72,1.22-3.56,1.22-5.47,0-3.86-1.24-6.71-3.73-8.58-2.48-1.87-5.6-3.34-9.35-4.41-3.75-1.06-7.79-1.97-12.14-2.73-4.36-.76-8.4-1.91-12.14-3.43-3.75-1.5-6.86-3.69-9.35-6.53-2.48-2.84-3.73-6.82-3.73-12,0-6.58,2.41-11.98,7.21-16.17,4.82-4.21,11.63-6.3,20.43-6.3s15.43,1.89,20.73,5.69c5.32,3.8,8.53,10.14,9.64,19.06h-9.25c-.82-6.08-3.12-10.35-6.92-12.83-3.8-2.48-8.58-3.73-14.35-3.73s-10.18,1.24-13.22,3.73c-3.04,2.48-4.56,5.75-4.56,9.79,0,3.54,1.24,6.25,3.73,8.12,2.48,1.87,5.6,3.39,9.35,4.56,3.75,1.17,7.79,2.21,12.14,3.12,4.36.91,8.42,2.21,12.16,3.88,3.75,1.67,6.86,3.93,9.33,6.75,2.48,2.84,3.73,6.79,3.73,11.85,0,3.76-.82,7.06-2.43,9.96-1.61,2.89-3.86,5.28-6.68,7.21-2.84,1.93-6.21,3.37-10.11,4.34-3.89.95-8.18,1.43-12.83,1.43s-8.79-.67-12.39-2.04c-3.6-1.37-6.66-3.26-9.2-5.69-2.52-2.43-4.51-5.27-5.91-8.51-1.43-3.24-2.23-6.73-2.43-10.48h9.27Z"/>
  </g>
  <g>
    <path class="b" d="m2130.67,323.15V46.93l-113.38,276.21h-10.27l-113.84-276.21v276.21h-26.6V11.94h39.66l105.92,258.02,105.45-258.02h40.12v311.21h-27.06Z"/>
    <path class="b" d="m2235.2,323.15V11.94h197.37v24.26h-170.77v115.24h167.5v24.26h-167.5v123.18h170.77v24.26h-197.37Z"/>
    <path class="b" d="m2722.32,323.15v-147.91h-197.36v147.91h-26.6V11.94h26.6v139.04h197.36V11.94h27.07v311.21h-27.07Z"/>
    <path class="b" d="m2905.71,323.15V36.2h-101.71V11.94h230.49v24.26h-101.71v286.95h-27.06Z"/>
    <path class="b" d="m3283.66,323.15l-31.26-76.52h-165.64l-31.26,76.52h-29.86l127.38-311.21h33.12l127.37,311.21h-29.86Zm-114.31-285.08l-74.18,184.3h148.84l-74.66-184.3Z"/>
  </g>
  <path class="b" d="m551.01,323.15l-31.26-76.52h-165.64l-31.26,76.52h-29.86L420.36,11.94h33.13l127.37,311.21h-29.86ZM436.7,38.07l-74.18,184.3h148.84l-74.66-184.3Z"/>
  <path class="b" d="m861.7,323.15L665.73,54.4v268.75h-26.6V11.94h27.07l195.03,265.01V11.94h26.59v311.21h-26.13Z"/>
  <path class="b" d="m979.25,259.22c20.07,23.33,52.72,45.26,97.05,45.26,63.92,0,82.11-35.46,82.11-62.06,0-43.86-41.52-55.99-85.38-67.65-48.99-13.53-101.25-27.52-101.25-84.92,0-50.86,45.73-83.05,102.18-83.05,46.66,0,81.19,16.33,105.45,43.86l-17.73,19.6c-22.4-27.07-54.12-39.2-89.12-39.2-41.53,0-72.78,23.8-72.78,57.39,0,36.86,38.72,47.59,81.19,58.79,50.39,14.46,105.44,30.33,105.44,93.31,0,40.13-26.59,88.19-110.58,88.19-51.33,0-90.05-20.53-113.84-49.46l17.26-20.07Z"/>
  <path class="b" d="m1260.58,323.15V11.94h26.6v311.21h-26.6Z"/>
  <path class="b" d="m219.25,147.52c6.6-12.33,10.42-26.4,10.42-41.27v-19.09C229.67,39.13,190.54,0,142.51,0H0v318.18h145.13c55.99,0,101.55-45.49,101.55-101.48,0-26.8-10.5-51.06-27.44-69.19ZM23.86,23.86h118.65c34.91,0,63.3,28.39,63.3,63.3v19.09c0,8.99-1.99,17.57-5.41,25.37-15.91-10.34-34.91-16.46-55.27-16.46H23.86V23.86Zm0,115.15h121.28c15.35,0,29.66,4.53,41.67,12.25-11.37,11.29-27.04,18.21-44.3,18.21H23.86v-30.46Zm121.28,155.31H23.86v-101h118.65c24.41,0,46.44-10.1,62.27-26.32,11.21,13.52,18.05,30.78,18.05,49.7,0,42.78-34.91,77.62-77.7,77.62Z"/>
  <g>
    <path class="b" d="m1448.31,258.61c20.24,23.53,53.19,45.66,97.91,45.66,64.49,0,82.85-35.77,82.85-62.6,0-44.25-41.89-56.49-86.15-68.26-49.43-13.65-102.15-27.77-102.15-85.67,0-51.32,46.13-83.79,103.09-83.79,47.07,0,81.91,16.48,106.39,44.25l-17.89,19.77c-22.59-27.3-54.6-39.54-89.91-39.54-41.89,0-73.43,24-73.43,57.89,0,37.19,39.07,48.02,81.91,59.31,50.84,14.6,106.39,30.6,106.39,94.15,0,40.48-26.83,88.97-111.56,88.97-51.79,0-90.85-20.72-114.86-49.9l17.42-20.24Z"/>
    <path class="b" d="m1734.04,286.38c11.3,0,21.18,9.41,21.18,20.24s-9.89,21.18-21.18,21.18-20.71-9.89-20.71-21.18,9.41-20.24,20.71-20.24Z"/>
  </g>
  <g>
    <path class="b" d="m3464.07,331.89c-35.47,0-58.39-20.74-58.39-52.83,0-29.47,19.21-45.05,40.52-57.23-9.37-15.72-14.13-29.64-14.13-41.42,0-24.95,20.28-44.48,46.16-44.48s41.42,14.27,41.42,37.26c0,28.25-23.71,41.14-46.72,53.56,7.52,10.37,15.63,19.77,21.98,26.91,9.25,10.44,16.26,18.11,22.99,25.13,10.3-16.18,16.3-33.15,19.02-42.08l.73-2.38,17.68,7.37-.82,2.06c-5.07,12.8-12.65,31.93-23.63,48.34,10.91,10.88,21.9,21.25,34.44,32.51l4.37,3.93h-28.67l-.64-.55c-5.96-5.19-13.55-12.47-21.54-20.66-15.47,16.29-33.88,24.54-54.78,24.54Zm-8.41-95.66c-15.47,9.57-29.35,21.43-29.35,42,0,24.98,20.15,36.37,38.87,36.37,14.6,0,28.32-6.8,40.8-20.2-12.89-13.23-21.78-22.76-26.42-28.34-9.2-10.43-17.23-20.46-23.9-29.83Zm23.14-83.57c-15.19,0-26.65,12.05-26.65,28.04,0,8.52,3.73,19.01,11.39,32.04,19.38-9.96,37.18-19.7,37.18-38.98,0-15.55-11.32-21.09-21.92-21.09Z"/>
    <path class="b" d="m3704.3,331.89c-55.4,0-95.62-41.26-95.62-98.12s40.21-98.12,95.62-98.12c28.42,0,51.91,11.32,69.83,33.63l1.57,1.95-17.23,11.13-1.25-1.73c-11.8-16.29-31.59-26.02-52.92-26.02-43.13,0-74.44,33.29-74.44,79.16s31.31,79.16,74.44,79.16c21.33,0,41.12-9.73,52.92-26.02l1.23-1.71,17.28,10.8-1.6,1.97c-18.44,22.82-41.29,33.91-69.83,33.91Z"/>
    <path class="b" d="m3887.69,331.89c-54.33,0-92.28-40.35-92.28-98.12s37.95-98.12,92.28-98.12,92.28,41.26,92.28,98.12-38.81,98.12-92.28,98.12Zm0-177.28c-42.53,0-71.1,31.81-71.1,79.16s28.57,79.16,71.1,79.16,71.11-32.56,71.11-79.16-28.58-79.16-71.11-79.16Z"/>
    <path class="b" d="m4016.06,331.33c-7.85,0-14.48-6.76-14.48-14.76s6.63-14.2,14.48-14.2,14.76,6.63,14.76,14.2-6.9,14.76-14.76,14.76Z"/>
  </g>
</svg>